<svg width="48" height="21" viewBox="0 0 48 21" fill="none" xmlns="http://www.w3.org/2000/svg">
<path d="M5.24156 1.02734V16.2031H8.24156V20H0.307968V1.02734H5.24156ZM20.962 12.1367C20.962 14.043 20.9152 15.3945 20.8214 16.1914C20.7355 16.9805 20.4542 17.7031 19.9777 18.3594C19.5089 19.0156 18.8722 19.5195 18.0675 19.8711C17.2628 20.2227 16.3253 20.3984 15.255 20.3984C14.2394 20.3984 13.3253 20.2344 12.5128 19.9062C11.7081 19.5703 11.0597 19.0703 10.5675 18.4062C10.0753 17.7422 9.78234 17.0195 9.68859 16.2383C9.59484 15.457 9.54797 14.0898 9.54797 12.1367V8.89062C9.54797 6.98438 9.59094 5.63672 9.67687 4.84766C9.77062 4.05078 10.0519 3.32422 10.5206 2.66797C10.9972 2.01172 11.6378 1.50781 12.4425 1.15625C13.2472 0.804688 14.1847 0.628906 15.255 0.628906C16.2706 0.628906 17.1808 0.796875 17.9855 1.13281C18.798 1.46094 19.4503 1.95703 19.9425 2.62109C20.4347 3.28516 20.7277 4.00781 20.8214 4.78906C20.9152 5.57031 20.962 6.9375 20.962 8.89062V12.1367ZM16.0284 5.90234C16.0284 5.01953 15.9777 4.45703 15.8761 4.21484C15.7823 3.96484 15.5831 3.83984 15.2784 3.83984C15.0206 3.83984 14.8214 3.94141 14.6808 4.14453C14.548 4.33984 14.4816 4.92578 14.4816 5.90234V14.7617C14.4816 15.8633 14.5245 16.543 14.6105 16.8008C14.7042 17.0586 14.9152 17.1875 15.2433 17.1875C15.5792 17.1875 15.7941 17.0391 15.8878 16.7422C15.9816 16.4453 16.0284 15.7383 16.0284 14.6211V5.90234ZM34.3739 8.01172H29.4403V6.28906C29.4403 5.20312 29.3934 4.52344 29.2997 4.25C29.2059 3.97656 28.9833 3.83984 28.6317 3.83984C28.327 3.83984 28.12 3.95703 28.0106 4.19141C27.9012 4.42578 27.8466 5.02734 27.8466 5.99609V15.1016C27.8466 15.9531 27.9012 16.5156 28.0106 16.7891C28.12 17.0547 28.3387 17.1875 28.6669 17.1875C29.0262 17.1875 29.2684 17.0352 29.3934 16.7305C29.5262 16.4258 29.5927 15.832 29.5927 14.9492V12.6992H28.5966V9.81641H34.3739V20H31.2684L30.8114 18.6406C30.4755 19.2266 30.0497 19.668 29.5341 19.9648C29.0262 20.2539 28.4247 20.3984 27.7294 20.3984C26.9012 20.3984 26.1239 20.1992 25.3973 19.8008C24.6786 19.3945 24.1317 18.8945 23.7567 18.3008C23.3817 17.707 23.1473 17.0859 23.0536 16.4375C22.9598 15.7812 22.913 14.8008 22.913 13.4961V7.85938C22.913 6.04688 23.0106 4.73047 23.2059 3.91016C23.4012 3.08984 23.9598 2.33984 24.8817 1.66016C25.8114 0.972656 27.0106 0.628906 28.4794 0.628906C29.9247 0.628906 31.1239 0.925781 32.077 1.51953C33.0302 2.11328 33.6512 2.82031 33.9403 3.64062C34.2294 4.45312 34.3739 5.63672 34.3739 7.19141V8.01172ZM47.8092 12.1367C47.8092 14.043 47.7623 15.3945 47.6686 16.1914C47.5827 16.9805 47.3014 17.7031 46.8248 18.3594C46.3561 19.0156 45.7194 19.5195 44.9147 19.8711C44.11 20.2227 43.1725 20.3984 42.1022 20.3984C41.0866 20.3984 40.1725 20.2344 39.36 19.9062C38.5553 19.5703 37.9069 19.0703 37.4147 18.4062C36.9225 17.7422 36.6295 17.0195 36.5358 16.2383C36.442 15.457 36.3952 14.0898 36.3952 12.1367V8.89062C36.3952 6.98438 36.4381 5.63672 36.5241 4.84766C36.6178 4.05078 36.8991 3.32422 37.3678 2.66797C37.8444 2.01172 38.485 1.50781 39.2897 1.15625C40.0944 0.804688 41.0319 0.628906 42.1022 0.628906C43.1178 0.628906 44.028 0.796875 44.8327 1.13281C45.6452 1.46094 46.2975 1.95703 46.7897 2.62109C47.2819 3.28516 47.5748 4.00781 47.6686 4.78906C47.7623 5.57031 47.8092 6.9375 47.8092 8.89062V12.1367ZM42.8756 5.90234C42.8756 5.01953 42.8248 4.45703 42.7233 4.21484C42.6295 3.96484 42.4303 3.83984 42.1256 3.83984C41.8678 3.83984 41.6686 3.94141 41.528 4.14453C41.3952 4.33984 41.3288 4.92578 41.3288 5.90234V14.7617C41.3288 15.8633 41.3717 16.543 41.4577 16.8008C41.5514 17.0586 41.7623 17.1875 42.0905 17.1875C42.4264 17.1875 42.6413 17.0391 42.735 16.7422C42.8288 16.4453 42.8756 15.7383 42.8756 14.6211V5.90234Z" fill="#5928E5"/>
</svg>
