<svg width="16" height="23" viewBox="0 0 16 23" fill="none" xmlns="http://www.w3.org/2000/svg">
<path d="M7.55566 11.6669C7.55566 9.58053 9.24703 7.88916 11.3334 7.88916H13.1941C14.2529 7.88916 15.1112 8.74748 15.1112 9.80627V13.5276C15.1112 14.5864 14.2529 15.4447 13.1941 15.4447H11.3334C9.24703 15.4447 7.55566 13.7533 7.55566 11.6669V11.6669Z" fill="#5928E5"/>
<path d="M0 19.2226C0 17.1362 1.69137 15.4448 3.77778 15.4448H7.55556V19.2226C7.55556 21.309 5.86419 23.0004 3.77778 23.0004V23.0004C1.69137 23.0004 0 21.309 0 19.2226V19.2226Z" fill="#5928E5"/>
<path d="M7.55566 0.333496V7.88905H11.3334C13.4199 7.88905 15.1112 6.19768 15.1112 4.11127V4.11127C15.1112 2.02486 13.4199 0.333496 11.3334 0.333496L7.55566 0.333496Z" fill="#5928E5"/>
<path d="M0 4.11138C0 6.19779 1.69137 7.88916 3.77778 7.88916L7.55556 7.88916L7.55556 0.333604L3.77778 0.333604C1.69137 0.333604 0 2.02497 0 4.11138V4.11138Z" fill="#5928E5"/>
<path d="M0 11.667C0 13.7535 1.69137 15.4448 3.77778 15.4448L7.55556 15.4448L7.55556 7.88927H3.77778C1.69137 7.88927 0 9.58064 0 11.667V11.667Z" fill="#5928E5"/>
</svg>
