<svg width="32" height="32" viewBox="0 0 32 32" fill="none" xmlns="http://www.w3.org/2000/svg">
<path d="M14.5333 2.79981C8.40001 3.46647 3.46668 8.39981 2.80001 14.3998C2.13335 20.6665 5.73334 26.2665 11.2 28.3998C11.6 28.5331 12 28.2665 12 27.7331V25.5998C12 25.5998 11.4667 25.7331 10.8 25.7331C8.93335 25.7331 8.13335 24.1331 8.00001 23.1998C7.86668 22.6665 7.60001 22.2665 7.20001 21.8665C6.80001 21.7331 6.66668 21.7331 6.66668 21.5998C6.66668 21.3331 7.06668 21.3331 7.20001 21.3331C8.00001 21.3331 8.66668 22.2665 8.93334 22.6665C9.60001 23.7331 10.4 23.9998 10.8 23.9998C11.3333 23.9998 11.7333 23.8665 12 23.7331C12.1333 22.7998 12.5333 21.8665 13.3333 21.3331C10.2667 20.6665 8.00001 18.9331 8.00001 15.9998C8.00001 14.5331 8.66668 13.0665 9.60001 11.9998C9.46668 11.7331 9.33334 11.0665 9.33334 10.1331C9.33334 9.59981 9.33335 8.79981 9.73335 7.99981C9.73335 7.99981 11.6 7.99981 13.4667 9.73314C14.1333 9.46647 15.0667 9.33314 16 9.33314C16.9333 9.33314 17.8667 9.46647 18.6667 9.73314C20.4 7.99981 22.4 7.99981 22.4 7.99981C22.6667 8.79981 22.6667 9.59981 22.6667 10.1331C22.6667 11.1998 22.5333 11.7331 22.4 11.9998C23.3333 13.0665 24 14.3998 24 15.9998C24 18.9331 21.7333 20.6665 18.6667 21.3331C19.4667 21.9998 20 23.1998 20 24.3998V27.8665C20 28.2665 20.4 28.6665 20.9333 28.5331C25.8667 26.5331 29.3333 21.7331 29.3333 16.1331C29.3333 8.13314 22.5333 1.86647 14.5333 2.79981Z" fill="#5928E5"/>
</svg>
