<svg width="31" height="28" viewBox="0 0 31 28" fill="none" xmlns="http://www.w3.org/2000/svg">
<g clip-path="url(#clip0)">
<path d="M25.5478 9.50998C25.2214 9.39798 24.8923 9.29429 24.5605 9.19891C24.6155 8.97544 24.6664 8.75099 24.7131 8.52558C25.4603 4.89806 24.9717 1.97575 23.3032 1.01376C21.7035 0.0910982 19.0871 1.05312 16.4446 3.35262C16.1843 3.57973 15.9297 3.8133 15.6811 4.05334C15.5146 3.89377 15.3452 3.73733 15.1729 3.58401C12.4036 1.12509 9.62771 0.0890048 7.96094 1.05383C6.36271 1.97903 5.88931 4.7264 6.56208 8.16418C6.62902 8.50462 6.70457 8.8432 6.78875 9.1799C6.39598 9.29146 6.01664 9.41035 5.65372 9.53685C2.40702 10.6688 0.333496 12.4429 0.333496 14.283C0.333496 16.1836 2.5593 18.0899 5.94116 19.2456C6.21538 19.3389 6.4918 19.4253 6.7704 19.5049C6.67992 19.8675 6.59962 20.2325 6.5295 20.5997C5.88808 23.9778 6.38903 26.66 7.98306 27.5795C9.62947 28.5288 12.3927 27.553 15.0835 25.201C15.2962 25.0151 15.5095 24.8185 15.7234 24.6112C15.9927 24.8709 16.269 25.1231 16.5524 25.3675C19.1587 27.6103 21.7328 28.516 23.3255 27.594C24.9704 26.6418 25.5049 23.7603 24.8108 20.2546C24.7579 19.9868 24.6966 19.7135 24.6269 19.4348C24.821 19.3775 25.0111 19.3182 25.1972 19.2567C28.7129 18.0921 31.0002 16.209 31.0002 14.283C31.0002 12.4362 28.8599 10.6502 25.5478 9.50998ZM17.3047 4.34097C19.5688 2.37055 21.6848 1.59264 22.6489 2.14868C23.6758 2.74096 24.0752 5.12922 23.43 8.26123C23.3877 8.46526 23.3417 8.66848 23.2921 8.87089C21.9411 8.5647 20.5713 8.3483 19.1917 8.2231C18.4014 7.08763 17.5353 6.00674 16.5995 4.98781C16.8292 4.76638 17.0642 4.55077 17.3047 4.34097ZM9.38831 15.8549C9.66564 16.3906 9.95545 16.9195 10.2577 17.4417C10.5661 17.9743 10.887 18.4992 11.2205 19.0166C10.2713 18.9136 9.32799 18.7619 8.39431 18.5622C8.66506 17.6879 8.99866 16.7791 9.38831 15.8549ZM9.38683 12.7738C9.00532 11.8689 8.67892 10.9793 8.41236 10.1202C9.28735 9.92434 10.2204 9.76433 11.1926 9.64285C10.8671 10.1504 10.5538 10.6654 10.2524 11.1879C9.9516 11.7097 9.66306 12.2383 9.38683 12.7738ZM10.0832 14.3145C10.4869 13.4743 10.9217 12.6502 11.3876 11.8422V11.8425C11.8531 11.0348 12.3488 10.2458 12.8745 9.47523C13.7865 9.40629 14.7217 9.37018 15.667 9.37018C16.6165 9.37018 17.5528 9.40655 18.4646 9.47605C18.9847 10.2448 19.4772 11.0312 19.9421 11.8353C20.4094 12.6409 20.8501 13.4611 21.2642 14.2959C20.8545 15.1387 20.4153 15.9661 19.9465 16.7782H19.9463C19.4818 17.5852 18.9914 18.3764 18.4751 19.1519C17.5653 19.2169 16.625 19.2504 15.6668 19.2504C14.7126 19.2504 13.7843 19.2207 12.8903 19.1628C12.3609 18.3895 11.8613 17.597 11.3915 16.7854C10.9243 15.9786 10.4882 15.1549 10.0832 14.3145H10.0832ZM21.0812 17.4326C21.3897 16.8977 21.6861 16.3561 21.9706 15.8078C22.3603 16.6886 22.7041 17.589 23.0004 18.5055C22.056 18.7177 21.1011 18.8805 20.1397 18.9931C20.4639 18.4792 20.7777 17.9591 21.0812 17.4326H21.0812ZM21.9581 12.7747C21.6747 12.2369 21.3807 11.705 21.076 11.1789C20.7762 10.6611 20.4653 10.1499 20.1434 9.6453C21.122 9.7688 22.0594 9.93302 22.9397 10.134C22.6571 11.0302 22.3295 11.9115 21.9581 12.7747H21.9581ZM15.6815 5.92467C16.3194 6.62001 16.9217 7.34713 17.4862 8.10325C16.2787 8.04619 15.0705 8.04592 13.8616 8.10243C14.4575 7.31675 15.0678 6.58685 15.6815 5.92467ZM8.61728 2.18763C9.64332 1.59372 11.9119 2.44061 14.303 4.56363C14.4558 4.69935 14.6093 4.84145 14.7631 4.98843C13.8218 6.00717 12.9492 7.08717 12.1507 8.22133C10.7744 8.34477 9.40745 8.55722 8.05854 8.85733C7.98031 8.54419 7.91006 8.22923 7.84776 7.91245V7.91258C7.27135 4.96703 7.65408 2.74522 8.61728 2.18763ZM7.12192 18.243C6.8677 18.1702 6.61535 18.0912 6.36488 18.006C5.06619 17.5974 3.85377 16.9533 2.78816 16.106C2.48287 15.8965 2.22377 15.6266 2.02689 15.3131C1.83001 14.9995 1.69953 14.6489 1.64351 14.283C1.64351 13.1664 3.30838 11.742 6.08507 10.7739C6.43358 10.6529 6.78542 10.5422 7.14056 10.4418C7.55286 11.7644 8.05217 13.0582 8.63523 14.3149C8.04485 15.5895 7.53931 16.9017 7.12192 18.243V18.243ZM14.2214 24.2146C13.2187 25.1355 12.055 25.864 10.7885 26.3637H10.7884C10.4545 26.5235 10.0913 26.6131 9.7214 26.627C9.35147 26.6409 8.98262 26.5788 8.63764 26.4446C7.67023 25.8868 7.26823 23.7329 7.81667 20.8441C7.88189 20.5027 7.95655 20.1633 8.04067 19.8259C9.40311 20.1186 10.7838 20.3185 12.1733 20.4242C12.9786 21.5648 13.858 22.6513 14.8057 23.6766C14.6154 23.8606 14.4206 24.04 14.2214 24.2146ZM15.7177 22.7338C15.0968 22.0638 14.4775 21.3228 13.8726 20.5257C14.4597 20.5488 15.0578 20.5604 15.6668 20.5604C16.2919 20.5604 16.909 20.5467 17.518 20.5193C16.9562 21.2878 16.3553 22.0269 15.7177 22.7338V22.7338ZM23.6731 24.5565C23.6448 24.9256 23.5411 25.285 23.3684 25.6124C23.1957 25.9399 22.9577 26.2284 22.6691 26.4602C21.7026 27.0197 19.6357 26.2925 17.4069 24.3745C17.1514 24.1546 16.8943 23.9203 16.6358 23.6715C17.5652 22.6426 18.424 21.5521 19.2063 20.4075C20.6038 20.2896 21.9916 20.0757 23.3597 19.7673C23.4222 20.0197 23.4775 20.267 23.5257 20.5091C23.8228 21.8378 23.8727 23.2098 23.6731 24.5565V24.5565ZM24.7853 18.0133H24.7852C24.6175 18.0688 24.4455 18.1224 24.2701 18.1744C23.8413 16.8457 23.3224 15.5477 22.7172 14.2894C23.2995 13.048 23.7982 11.7691 24.2097 10.4611C24.5234 10.552 24.8279 10.6477 25.1213 10.7488C27.9592 11.7256 29.6902 13.17 29.6902 14.2829C29.6902 15.4685 27.8207 17.0075 24.7853 18.0134V18.0133Z" fill="#5928E5"/>
<path d="M15.6666 11.5444C16.2083 11.5444 16.7377 11.705 17.1881 12.0059C17.6384 12.3068 17.9894 12.7345 18.1967 13.2349C18.404 13.7353 18.4582 14.2859 18.3526 14.8171C18.2469 15.3484 17.9861 15.8363 17.6031 16.2193C17.2201 16.6023 16.7322 16.8631 16.2009 16.9688C15.6697 17.0744 15.1191 17.0202 14.6187 16.8129C14.1183 16.6057 13.6906 16.2546 13.3897 15.8043C13.0888 15.3539 12.9282 14.8245 12.9282 14.2828C12.9282 13.5566 13.2167 12.86 13.7303 12.3465C14.2438 11.8329 14.9404 11.5444 15.6666 11.5444" fill="#5928E5"/>
</g>
<defs>
<clipPath id="clip0">
<rect width="30.6667" height="27.2846" fill="white" transform="translate(0.333496 0.666504)"/>
</clipPath>
</defs>
</svg>
